<svg id="Layer_1" data-name="Layer 1" xmlns="http://www.w3.org/2000/svg" viewBox="0 0 210.32 68"><defs><style>.cls-1{fill:#fff;}</style></defs><path class="cls-1" d="M20.07,34.65,8.84,46.14V62.26H0V0H8.84V34.83L42.36,0H52.49L26.15,28,54.33,62.26H44Z" transform="translate(0 0)"/><path class="cls-1" d="M118.79,57.25l3.5-6.67a30.56,30.56,0,0,0,16.39,4.82c7.92,0,11-2.41,11-6.48,0-10.57-29.65-1.49-29.65-20.2,0-8.52,7.55-14.08,19.52-14.08,6.08,0,13.08,1.67,17.13,4.26L153,25.57a23.81,23.81,0,0,0-13.44-3.71c-7.37,0-11,2.78-11,6.49,0,11.12,29.65,2,29.65,20.38,0,8.52-7.73,13.9-20.26,13.9C130.39,62.81,122.66,60.4,118.79,57.25Z" transform="translate(0 0)"/><path class="cls-1" d="M210.32,33.72V62.26h-8.1V56c-2.76,4.26-8.1,6.67-15.47,6.67-10.68,0-17.31-5.75-17.31-13.9,0-7.6,4.78-13.71,18.78-13.71h13.45V33.35c0-7.22-4.24-11.3-12.53-11.3a25,25,0,0,0-14.92,5l-3.49-6.48c4.78-3.89,11.78-6.12,19.33-6.12C203.14,14.64,210.32,20.94,210.32,33.72ZM201.85,47.8V41.13H188.77c-8.47,0-10.86,3.34-10.86,7.23,0,4.63,3.86,7.6,10.31,7.6C194.67,56.14,199.82,53.36,201.85,47.8Z" transform="translate(0 0)"/><path class="cls-1" d="M91.53,49.84v12.6l5.34-3.15V46.69Z" transform="translate(0 0)"/><path class="cls-1" d="M106.27,34.46,84.35,21.68l-12.16-7-12,20.93.19,19.65L82.14,68l2.21-1.3V48.17l9.76-17.23,10,5.75V55.22l2.21-1.3Z" transform="translate(0 0)"/></svg>